<svg xmlns="http://www.w3.org/2000/svg" viewBox="0 0 834.36 207.17"><defs><style>.cls-1{fill:#fff;}</style></defs><g id="Layer_2" data-name="Layer 2"><g id="Layer_1-2" data-name="Layer 1"><path class="cls-1" d="M300.32,58.88V74.47c0,12.9-12.71,23.92-30,23.92-44.37,0-43.88-70.68,0-70.68,17.27,0,29.29,11,29.48,23.52H285.23c-1-5.26-7.74-9.52-14.09-9.52-24.62,0-24,42.68,0,42.68,6.15,0,13.4-4.56,14.29-9.73V72.48H271.14V58.88Zm52.2-30.58h17.87l-26.8,50.93V97.79H327.41V79.23L300.5,28.3h17.87l17.08,36.63Zm50.91,0,26.21,69.49h-18l-6.75-20.25H386.46l-6.75,20.25H361.84L388,28.3Zm-7.74,20.45-5.46,16.48h10.92ZM472.21,28.3l26.21,69.49h-18L473.7,77.54H455.24l-6.75,20.25H430.62L456.73,28.3Zm-7.74,20.45L459,65.23h10.92ZM548.73,28.3H565V97.79H548.73L521.63,55.6V97.79H505.35V28.3h16.38l27,42.09Zm62.72,0C633,28.4,637,55.41,622.57,61.46c20,4.47,14.3,36.33-4.37,36.33H577.9V28.3ZM594.18,41.9V56.2h13.4c9.53,0,9.83-14.3,0-14.3Zm17.17,28H594.18V84.09h17.17C621,84.09,621,69.9,611.35,69.9Zm75.44-41.6h17.86l-26.8,50.93V97.79H661.67V79.23L634.77,28.3h17.87l17.07,36.63Zm85.75,0V41.9H748.31V97.79H732V41.9H707.91V28.3Zm25.39,55.79h36.43v13.7H781.65V28.3H833V41.9H797.93V56.2h24.32V69.9H797.93Z"/><path class="cls-1" d="M245.28,121.35h5.2v37h-5.2Zm2.6,32.06h21.17v4.94H247.88Z"/><path class="cls-1" d="M281.9,156.71c-1.62-1.35-2.42-3.4-2.42-6.15s.74-4.57,2.21-5.88,3.71-2,6.69-2h7.51l.36,4.18h-7.84a4.43,4.43,0,0,0-3,.9,3.52,3.52,0,0,0-1,2.76,3.43,3.43,0,0,0,1.34,3,6.89,6.89,0,0,0,4.06,1,11.63,11.63,0,0,0,4.44-.64,2.07,2.07,0,0,0,1.46-2l.54,3.71a6.17,6.17,0,0,1-1.69,1.76,7.48,7.48,0,0,1-2.33,1,11.91,11.91,0,0,1-3,.34Q284.31,158.73,281.9,156.71Zm13.76-15.1a5.61,5.61,0,0,0-1.38-4,5.23,5.23,0,0,0-3.94-1.44,10.18,10.18,0,0,0-3.09.49,9,9,0,0,0-2.68,1.35l-3.79-2.6a10,10,0,0,1,4-2.81,14.31,14.31,0,0,1,5.46-1,12.65,12.65,0,0,1,5.63,1.16,8,8,0,0,1,3.56,3.36,10.85,10.85,0,0,1,1.22,5.31v17h-4.94Z"/><path class="cls-1" d="M314.59,121.35h5.19v37h-5.19Zm7.53,36.2a7,7,0,0,1-2.7-3.35l.36-5.52a6.28,6.28,0,0,0,.61,2.9,4.23,4.23,0,0,0,1.77,1.83,5.69,5.69,0,0,0,2.81.64,5.07,5.07,0,0,0,4-1.57,6.3,6.3,0,0,0,1.42-4.41v-5.73a6.55,6.55,0,0,0-1.42-4.5,5,5,0,0,0-4-1.61,5.92,5.92,0,0,0-2.81.62,4.08,4.08,0,0,0-1.77,1.79,6.11,6.11,0,0,0-.61,2.84l-.53-5.09a9.14,9.14,0,0,1,3.12-3.58,7.74,7.74,0,0,1,4.31-1.26,8.79,8.79,0,0,1,4.79,1.26,7.9,7.9,0,0,1,3,3.68,14.6,14.6,0,0,1,1.05,5.83v5.75a14.05,14.05,0,0,1-1.07,5.75,7.92,7.92,0,0,1-3.13,3.65,9.3,9.3,0,0,1-4.94,1.26A7.75,7.75,0,0,1,322.12,157.55Z"/><path class="cls-1" d="M354,158.27a15.56,15.56,0,0,1-3.83-1.37,14.82,14.82,0,0,1-3.29-2.29l3.08-3.79a17.52,17.52,0,0,0,4.25,2.44,11.6,11.6,0,0,0,4.17.81,8.85,8.85,0,0,0,4.62-.95,3.14,3.14,0,0,0,1.54-2.86,2.24,2.24,0,0,0-.84-1.91,4.6,4.6,0,0,0-2.08-.85c-.83-.15-2-.28-3.51-.4h-.44l-.43,0h-.41a21.2,21.2,0,0,1-4.35-.75,5.89,5.89,0,0,1-3-2.05,6.83,6.83,0,0,1-1.19-4.3,8.68,8.68,0,0,1,1.15-4.66,7,7,0,0,1,3.41-2.79,15,15,0,0,1,5.67-.93,20,20,0,0,1,3.94.38,18.12,18.12,0,0,1,3.57,1.14,17.73,17.73,0,0,1,3.28,1.89l-3.13,3.79a17.47,17.47,0,0,0-3.9-1.9,11.74,11.74,0,0,0-3.76-.64,7.11,7.11,0,0,0-4,.9,3.08,3.08,0,0,0-1.32,2.71,1.85,1.85,0,0,0,.75,1.61,4.46,4.46,0,0,0,1.9.71c.76.12,1.85.22,3.25.31l.32,0,.35,0H360a.39.39,0,0,1,.15,0,22.83,22.83,0,0,1,4.72.74,6.34,6.34,0,0,1,3.27,2.21,7.55,7.55,0,0,1,1.33,4.79,8.43,8.43,0,0,1-1.23,4.72,7.42,7.42,0,0,1-3.67,2.81,17.39,17.39,0,0,1-6.18.94A19.69,19.69,0,0,1,354,158.27Z"/><path class="cls-1" d="M402.76,121.35H408v37h-5.2Zm2.68,17.71h11.83a5.45,5.45,0,0,0,3-.79,5.14,5.14,0,0,0,2-2.24,8.34,8.34,0,0,0,0-6.69,5.22,5.22,0,0,0-2-2.25,5.37,5.37,0,0,0-3-.8H405.44v-4.94h11.65a11.73,11.73,0,0,1,5.83,1.41,9.86,9.86,0,0,1,3.91,4,12.43,12.43,0,0,1,1.38,6,12.29,12.29,0,0,1-1.38,5.94,9.81,9.81,0,0,1-3.91,4,11.83,11.83,0,0,1-5.83,1.4H405.44Z"/><path class="cls-1" d="M439.53,131.93h5.19v26.42h-5.19Zm12.8,5a6.26,6.26,0,0,0-2.42-.43,5.18,5.18,0,0,0-3.83,1.36,5.11,5.11,0,0,0-1.36,3.78l-.54-5.09a9.79,9.79,0,0,1,3.16-3.68,7.48,7.48,0,0,1,4.28-1.31,9.92,9.92,0,0,1,3.27.52,7.51,7.51,0,0,1,2.55,1.54l-3.38,4.59A4.43,4.43,0,0,0,452.33,136.92Z"/><path class="cls-1" d="M467.87,121.35h5.19v5.19h-5.19Zm0,10.58h5.19v26.42h-5.19Z"/><path class="cls-1" d="M502.6,131.93H508l-9.93,26.42h-3.92l-9.92-26.42h5.42l6.46,18.86Z"/><path class="cls-1" d="M520.35,156.71q-2.42-2-2.42-6.15,0-3.92,2.22-5.88c1.47-1.3,3.7-2,6.69-2h7.51l.35,4.18h-7.83a4.46,4.46,0,0,0-3,.9,3.52,3.52,0,0,0-1,2.76,3.43,3.43,0,0,0,1.33,3,6.91,6.91,0,0,0,4.06,1,11.56,11.56,0,0,0,4.44-.64,2.08,2.08,0,0,0,1.47-2l.53,3.71a6.17,6.17,0,0,1-1.69,1.76,7.38,7.38,0,0,1-2.33,1,11.8,11.8,0,0,1-3,.34C524.4,158.73,522,158.06,520.35,156.71Zm13.77-15.1a5.57,5.57,0,0,0-1.39-4,5.19,5.19,0,0,0-3.93-1.44,10.18,10.18,0,0,0-3.09.49A9.06,9.06,0,0,0,523,138l-3.79-2.6a9.93,9.93,0,0,1,4-2.81,14.24,14.24,0,0,1,5.46-1,12.6,12.6,0,0,1,5.62,1.16,8,8,0,0,1,3.56,3.36,10.74,10.74,0,0,1,1.22,5.31v17h-4.93Z"/><path class="cls-1" d="M551,131.93h11.91v4.69H551Zm4.21,24.78a8,8,0,0,1-1.49-5.23V124.25h5.19v27.28a2.54,2.54,0,0,0,.38,1.49,1.3,1.3,0,0,0,1.12.52h2.5v4.94h-3A5.8,5.8,0,0,1,555.22,156.71Z"/><path class="cls-1" d="M580.7,157.36a9.15,9.15,0,0,1-4-4,13.9,13.9,0,0,1-1.36-6.42v-3a15.47,15.47,0,0,1,1.31-6.69,9.38,9.38,0,0,1,3.8-4.23,11.83,11.83,0,0,1,6-1.45,9.5,9.5,0,0,1,5.65,1.66,10.21,10.21,0,0,1,3.57,4.78A20.33,20.33,0,0,1,597,145.5v1.73H579.14v-4.18H592a8.84,8.84,0,0,0-1.67-5,4.67,4.67,0,0,0-3.85-1.8,5.63,5.63,0,0,0-4.57,1.94,8.28,8.28,0,0,0-1.62,5.47V147a6.89,6.89,0,0,0,1.73,5A6.61,6.61,0,0,0,587,153.8a8.3,8.3,0,0,0,3.13-.64,9.19,9.19,0,0,0,2.77-1.78l3.41,3.41a14.53,14.53,0,0,1-4.4,2.91,12.51,12.51,0,0,1-4.91,1A13.28,13.28,0,0,1,580.7,157.36Z"/><path class="cls-1" d="M630.79,121.35H636v37h-5.19Zm2.59,32.06h21.17v4.94H633.38Z"/><path class="cls-1" d="M666.25,121.35h5.19v5.19h-5.19Zm0,10.58h5.19v26.42h-5.19Z"/><path class="cls-1" d="M685.43,131.93h5.19v26.42h-5.19Zm15.78,10.41a6.23,6.23,0,0,0-1.38-4.32,5,5,0,0,0-3.89-1.53,5.39,5.39,0,0,0-3.93,1.35,5,5,0,0,0-1.39,3.79l-.53-5.09a9.41,9.41,0,0,1,3.19-3.69,7.72,7.72,0,0,1,4.36-1.3,8.6,8.6,0,0,1,4.74,1.26,8,8,0,0,1,3,3.68,14.79,14.79,0,0,1,1,5.83v16h-5.19Zm15.78,0a6.06,6.06,0,0,0-1.45-4.32,5.36,5.36,0,0,0-4.08-1.53,4.74,4.74,0,0,0-3.74,1.48,6,6,0,0,0-1.32,4.17l-1-5.09a10.17,10.17,0,0,1,3.29-4.06,7.69,7.69,0,0,1,4.52-1.44,9,9,0,0,1,4.87,1.26,7.91,7.91,0,0,1,3.08,3.68,14.42,14.42,0,0,1,1.06,5.83v16H717Z"/><path class="cls-1" d="M736.16,121.35h5.2v5.19h-5.2Zm0,10.58h5.2v26.42h-5.2Z"/><path class="cls-1" d="M753.31,131.93h11.91v4.69H753.31Zm4.21,24.78a8,8,0,0,1-1.49-5.23V124.25h5.19v27.28a2.54,2.54,0,0,0,.38,1.49,1.3,1.3,0,0,0,1.12.52h2.5v4.94h-3A5.8,5.8,0,0,1,757.52,156.71Z"/><path class="cls-1" d="M783,157.36a9.21,9.21,0,0,1-4-4,13.9,13.9,0,0,1-1.36-6.42v-3a15.62,15.62,0,0,1,1.31-6.69,9.38,9.38,0,0,1,3.8-4.23,11.86,11.86,0,0,1,6-1.45,9.5,9.5,0,0,1,5.65,1.66A10.3,10.3,0,0,1,798,138a20.55,20.55,0,0,1,1.23,7.51v1.73H781.45v-4.18h12.87a8.91,8.91,0,0,0-1.66-5,4.69,4.69,0,0,0-3.86-1.8,5.63,5.63,0,0,0-4.57,1.94,8.28,8.28,0,0,0-1.61,5.47V147a6.85,6.85,0,0,0,1.73,5,6.58,6.58,0,0,0,4.91,1.76,8.3,8.3,0,0,0,3.13-.64,9.19,9.19,0,0,0,2.77-1.78l3.41,3.41a14.41,14.41,0,0,1-4.4,2.91,12.51,12.51,0,0,1-4.91,1A13.28,13.28,0,0,1,783,157.36Z"/><path class="cls-1" d="M815.91,157.55a7.93,7.93,0,0,1-3.12-3.68,14.3,14.3,0,0,1-1.07-5.8v-5.83a14.82,14.82,0,0,1,1-5.83,7.93,7.93,0,0,1,3-3.67,8.83,8.83,0,0,1,4.8-1.26,7.87,7.87,0,0,1,4.29,1.22,9,9,0,0,1,3.14,3.43l-.53,5.4a6.38,6.38,0,0,0-.61-2.88,4.26,4.26,0,0,0-1.77-1.82,5.92,5.92,0,0,0-2.81-.62,5,5,0,0,0-4,1.6,6.61,6.61,0,0,0-1.41,4.51v5.75a6.4,6.4,0,0,0,1.41,4.44,5.1,5.1,0,0,0,4,1.56,5.69,5.69,0,0,0,2.81-.64,4.35,4.35,0,0,0,1.77-1.88,6.52,6.52,0,0,0,.61-2.92l.35,5.57a7.4,7.4,0,0,1-2.58,3.28,7.17,7.17,0,0,1-4.41,1.33A9.24,9.24,0,0,1,815.91,157.55Zm11.59-36.2h5.19v37H827.5Z"/><path class="cls-1" d="M132.05,101.88V43.42h-.26v-11c4.54.52,29.24,4.07,40.28,20.08a244.49,244.49,0,0,0,12.15-22L170.29,25l9.47-7.52A55.44,55.44,0,0,0,154.55,7.08c-21.87-5.68-47-7.08-47-7.08V122.52A240.34,240.34,0,0,0,132.05,101.88Z"/><path class="cls-1" d="M6.6,128.05A7.22,7.22,0,0,1,7,130.21a6.54,6.54,0,0,1-.06.89,95.57,95.57,0,0,0,5.8,12.3,32.91,32.91,0,0,0,7.51,3.52c6.55,2.16,16.2,3.31,29.86.74-8.61-9.21-17.6-23.25-18.92-42.49V39.67c26.45-16.16,70.53-13.22,70.53-13.22V0C42.9,2.94,6.17,25,6.17,25v98.44A32.65,32.65,0,0,0,6.71,128Z"/><path class="cls-1" d="M94.12,131.42c.24-.13,1.34-.76,3.14-1.89v-34H54.65v22H75.22v22.53C81.05,137.74,87.33,134.9,94.12,131.42Z"/><path class="cls-1" d="M75.22,160.08v7.54L68.47,162c-10.07,2.66-20.63,4.51-30.59,4.51a70.53,70.53,0,0,1-7.17-.36l0,0a4.45,4.45,0,0,1,1,.92,10.86,10.86,0,0,0,1,1l.66.37.28.15c12.92,11.93,32.8,26.13,62,37.55l1.6,1v-55C90.8,154.82,83.26,157.64,75.22,160.08Z"/><path class="cls-1" d="M201.23,61.15a5.9,5.9,0,0,0,.26-1.26,25.16,25.16,0,0,0-.23-5.4,267.62,267.62,0,0,1-35.82,50.37l.17.18h0c-.33.34,1,1.36,2.87,3L173,113c5.39,7.22,8.54,19.24-11.86,36.09-20.43,12.26-27,16.35-29.12,17.7V134.45c-4.49,3.13-9.19,6.08-14.08,8.81l-7.71,4.29h0c-.9.57-1.82,1.11-2.71,1.69v57.93l45.54-23.51s81.55-40.41,33.06-91.83C186.15,91.83,203.85,75.48,201.23,61.15Z"/><path class="cls-1" d="M115.39,138.65C175.75,105,204.86,35.71,205.85,33.32l8.43,3.32L209,1,180.75,23.41,192,27.85a3.26,3.26,0,0,0-.63-.12C156.61,103.32,96.6,136.09,96.6,136.09,18,176.38,0,137.75,0,137.75,18.22,190.8,115.37,137.2,115.39,138.65Z"/></g></g></svg>