<svg xmlns="http://www.w3.org/2000/svg" viewBox="0 0 849.3 232.54"><defs><style>.cls-1{fill:#020202;}</style></defs><g id="Layer_2" data-name="Layer 2"><g id="Layer_1-2" data-name="Layer 1"><path class="cls-1" d="M106.62,152.48v-8.15h-1.23a5.41,5.41,0,0,1-5.44-4.24c0-.12,0-.23-.08-.34l-.83,0-13.26,0h0a5.49,5.49,0,0,1-3.88-1.56V164.1c6.1-2.35,12.66-5.2,19.71-8.66C101.89,155.28,103.68,154.3,106.62,152.48Z"/><path class="cls-1" d="M58.79,131.94H79.61c-.07-.45-.13-.9-.18-1.33a39.69,39.69,0,0,1-.38-6.71,15.3,15.3,0,0,1,6.66-12.48,5.14,5.14,0,0,1-3.17-2.91c-.2-.43-.38-.87-.57-1.31H58.79Z"/><path class="cls-1" d="M206.48,49.62a3.12,3.12,0,0,0,.52,0V48.1Z"/><path class="cls-1" d="M4.86,143.73a8.38,8.38,0,0,1,.39,2.43,8.55,8.55,0,0,1-.07,1,109.83,109.83,0,0,0,7,14.76s.27.52.83,1.44c1,1.7,2.11,3.45,3.31,5.23,8.24,4.19,21.67,7.09,42.72,2.5-10.93-9.86-24.91-27.3-26.68-53V44.53c29.69-18.14,79.16-14.84,79.16-14.84V0C45.6,3.3,4.37,28,4.37,28V138.53a35.45,35.45,0,0,0,.61,5.1Z"/><path class="cls-1" d="M154.64,108.07l-.17.39a5.14,5.14,0,0,1-3.21,3,15.42,15.42,0,0,1,2.61,2.26c4.11-4.26,8.29-8.87,12.47-13.82h-8.9a41.24,41.24,0,0,1-2,6.43C155.19,106.88,154.92,107.48,154.64,108.07Z"/><path class="cls-1" d="M223.22,60.12a288.63,288.63,0,0,1-40.91,60.48h3.39l.82.74,5.15,5.54c6,8.1,9.58,21.6-13.31,40.51-22.94,13.76-30.32,18.35-32.69,19.87V154a179.15,179.15,0,0,1-19.9,12.42l-6.55,3.5v-.35l-1.06.51v62.47l51.13-26.39s91.53-45.35,37.1-103.08c0,0,19.87-18.34,16.93-34.43a7.7,7.7,0,0,0,.3-1.42A31.4,31.4,0,0,0,223.22,60.12Z"/><path class="cls-1" d="M120.19,51.14a39.26,39.26,0,0,1,23.72,9.08c.61.49,1.19,1,1.76,1.53v-13h-.3V36.37a89,89,0,0,1,27.83,8.16c9.36,6.11,15.06,13,18.29,20.09,3.28-5.48,6.46-11.21,9.48-17.23L186.9,41.56l19.84-15.22c-8.07-8.63-19.6-15.84-35.82-18.4C146.37,1.57,118.16,0,118.16,0V51.11C118.83,51.1,119.51,51.11,120.19,51.14Z"/><path class="cls-1" d="M98.78,112.8a9.27,9.27,0,1,0-9.17-9.35A9.26,9.26,0,0,0,98.78,112.8Z"/><path class="cls-1" d="M127.1,116.25c.44.19.88.38,1.31.6a13,13,0,0,1,7.43,10.22,18.25,18.25,0,0,1,.15,3.54c4.59-4,9.44-8.44,14.42-13.41a12.51,12.51,0,0,0-5.14-3.36,1.47,1.47,0,0,0-1.56.13,3,3,0,0,1-.59.3,11.59,11.59,0,0,1-6.84,1,12.47,12.47,0,0,1-4.06-1.44,1,1,0,0,0-.84-.11,14.82,14.82,0,0,0-4.3,2.24C126.88,116.1,126.88,116.15,127.1,116.25Z"/><path class="cls-1" d="M84,124.11a35,35,0,0,0,.34,5.88,26.11,26.11,0,0,0,.83,4.37.53.53,0,0,0,.6.45q7.58,0,15.15,0c.3,0,.4-.06.36-.4a41.49,41.49,0,0,1-.29-5.68,14.55,14.55,0,0,1,1.09-5.09,13,13,0,0,1,6.68-6.85c.43-.21.87-.4,1.3-.6,0,0,0-.07,0-.08a13.09,13.09,0,0,0-4.59-2.43.59.59,0,0,0-.51.08,12.32,12.32,0,0,1-5.32,1.65,11.94,11.94,0,0,1-6.66-1.59.92.92,0,0,0-.81-.08,15.3,15.3,0,0,0-1.74.68A10.58,10.58,0,0,0,84,124.11Z"/><path class="cls-1" d="M138.21,112.8a9.28,9.28,0,1,0-9.38-9.19A9.25,9.25,0,0,0,138.21,112.8Z"/><path class="cls-1" d="M118.45,98.87a9.28,9.28,0,1,0,9.32,9.25A9.28,9.28,0,0,0,118.45,98.87Z"/><path class="cls-1" d="M133.27,132.33a19.73,19.73,0,0,0-.1-5.48,10.21,10.21,0,0,0-2.73-5.42,12.74,12.74,0,0,0-5.41-3.14.65.65,0,0,0-.58.13,12.34,12.34,0,0,1-4.64,1.53,11.66,11.66,0,0,1-7.21-1.51,1,1,0,0,0-.88-.08,15,15,0,0,0-3,1.39,10.07,10.07,0,0,0-5,7.81,33.32,33.32,0,0,0,1,11.37c.08.37.27.46.63.46h19.93c2.5-1.94,5.14-4.07,7.89-6.38Z"/><path class="cls-1" d="M87.27,106.72c.13,0,.12-.16.15-.26a11.62,11.62,0,0,1,1.65-3.06.53.53,0,0,0,.07-.55c-.22-.63-.45-1.25-.66-1.89a33.9,33.9,0,0,1-1.59-7.84c0-.29,0-.43.36-.43,2.88,0,5.77,0,8.65,0a1.86,1.86,0,0,1,.77-.16h20.56a1.61,1.61,0,0,1,1.51-.92h23.9a1.65,1.65,0,0,1,1.61,1.08h5.37c.39,0,.5.11.47.49a33.77,33.77,0,0,1-2.23,9.62.47.47,0,0,0,0,.51,12.06,12.06,0,0,1,1.69,3.19c0,.08.06.19.16.21s.15-.12.19-.21c.32-.69.65-1.38.93-2.08a35.22,35.22,0,0,0,2.59-11.89,34.56,34.56,0,0,0-4.23-18.31A35.09,35.09,0,0,0,99.62,61.54,34.83,34.83,0,0,0,88.87,72.37a34.3,34.3,0,0,0-5.21,15.38,35.09,35.09,0,0,0,3.39,18.73C87.1,106.58,87.13,106.73,87.27,106.72Zm60.1-28.58a33,33,0,0,1,2.53,9.09c.08.55.12,1.1.19,1.64.06.37-.07.49-.44.49H139.54c-.8,0-.73.09-.79-.73a50.76,50.76,0,0,0-1.07-7.15c-.16-.7-.16-.69.52-.86a72.45,72.45,0,0,0,8.65-2.75C147.18,77.74,147.27,77.9,147.37,78.14Zm-9-11.66a31.57,31.57,0,0,1,6.21,6.79c.26.39.5.8.77,1.18s.11.36-.17.46c-2,.73-3.95,1.39-6,1.93l-2.36.61-.18,0a.27.27,0,0,1-.33-.2,41.57,41.57,0,0,0-3.58-7.42c-.14-.23-.1-.33.14-.44a31.85,31.85,0,0,0,5-3A.32.32,0,0,1,138.42,66.48Zm-10.95-5.77a31.37,31.37,0,0,1,7.62,3.4c.32.2.33.27,0,.48a33.25,33.25,0,0,1-4,2.25c-.25.12-.33-.1-.43-.23-.51-.64-1-1.31-1.51-2a47,47,0,0,0-3.87-4.23.43.43,0,0,1-.2-.37C125.88,60.28,126.68,60.47,127.47,60.71Zm-7.21-.15c.12,0,.21.09.29.16,1.26,1.07,2.44,2.22,3.59,3.41a38,38,0,0,1,3.15,3.66c.25.34.24.36-.16.48a34,34,0,0,1-6.49,1.16c-.45,0-.48,0-.48-.46v-4h0c0-1.35,0-2.7,0-4.05C120.2,60.76,120.11,60.61,120.26,60.56ZM120.15,73c0-.32.1-.44.42-.46a35.27,35.27,0,0,0,8.21-1.51c.68-.2.67-.2,1.06.42A40.94,40.94,0,0,1,133,77.84c.13.34,0,.44-.27.5a77.51,77.51,0,0,1-7.71,1c-1.42.12-2.85.21-4.27.3-.62,0-.62,0-.62-.58v-3h0C120.15,75.08,120.16,74.06,120.15,73Zm.48,10a87.1,87.1,0,0,0,12.89-1.36c.88-.16.69-.14.87.59a36.74,36.74,0,0,1,1,6.59c0,.51,0,.53-.56.53h-7.11v0h-7c-.6,0-.6,0-.61-.6,0-1.75,0-3.51,0-5.26C120.12,83.11,120.26,83,120.63,83Zm-3.81,5.87c0,.4-.14.5-.52.5-2.38,0-4.75,0-7.12,0h-7c-.64,0-.65,0-.61-.64a38.46,38.46,0,0,1,1.11-6.9c.06-.24.19-.3.43-.25A90.56,90.56,0,0,0,116.35,83c.39,0,.48.15.48.51C116.81,85.3,116.81,87.09,116.82,88.87Zm0-12.73c0,1,0,2,0,3,0,.5,0,.51-.5.49a85.42,85.42,0,0,1-10.71-1.1c-.47-.08-.93-.16-1.4-.22-.3,0-.38-.14-.26-.44a47.11,47.11,0,0,1,3.41-6.72c.16-.26.29-.29.59-.19a34.64,34.64,0,0,0,5,1.19c1.11.18,2.23.32,3.36.39.34,0,.47.15.47.5,0,1,0,2.05,0,3.07Zm-.37-15.42c.09-.07.17-.22.29-.18s.06.21.06.32c0,1.36,0,2.72,0,4.09h0v3.93c0,.57,0,.56-.57.52a35.45,35.45,0,0,1-6.31-1.09c-.48-.13-.48-.15-.19-.54A45.62,45.62,0,0,1,116.43,60.72Zm-14.62,3.44a31.57,31.57,0,0,1,9.35-3.89l.75-.2.07.1c-.38.39-.77.77-1.15,1.17a45.08,45.08,0,0,0-4.53,5.41c-.11.16-.2.18-.38.09a41.47,41.47,0,0,1-4.12-2.29C101.56,64.4,101.56,64.31,101.81,64.16ZM91.6,74.42a32.35,32.35,0,0,1,6.91-7.89c.2-.17.35-.21.57,0a30.31,30.31,0,0,0,5,3c.22.11.29.16.14.42a38.71,38.71,0,0,0-3.53,7.23c-.06.18-.06.44-.34.42l-1.67-.43c-2.34-.61-4.63-1.33-6.9-2.15C91.47,74.82,91.4,74.73,91.6,74.42ZM86.89,88.83a33.78,33.78,0,0,1,2-9c.23-.6.49-1.19.74-1.78.08-.2.18-.32.45-.21a58.39,58.39,0,0,0,6.06,2.06c1,.29,2,.54,3,.79.24.06.33.14.26.41a35.14,35.14,0,0,0-.88,4.55,32.8,32.8,0,0,0-.32,3.28c0,.33-.14.42-.45.42-1.75,0-3.49,0-5.23,0H87.38C86.88,89.37,86.85,89.33,86.89,88.83Z"/><path class="cls-1" d="M150.92,134.79c.79,0,.79,0,1-.79,0,0,0-.05,0-.07a37.39,37.39,0,0,0,1-6.62c-2.8,2.7-5.5,5.19-8.07,7.48Z"/><path class="cls-1" d="M226.33,16.92,195.72,40.4l11.95,5a3.31,3.31,0,0,0-.67-.14C168.42,125.45,103.61,159.4,103.61,159.4c-63.73,31.29-90,15.59-99.2,5.83l-2.8-3.48A18.06,18.06,0,0,1,.22,159.4c.13.39.28.76.41,1.14L0,159.76s13.71,59,123.31,2.76c.23-.07.36-.08.36,0,65.2-34.88,97.62-108.49,98.73-111l9,3.71Z"/><path class="cls-1" d="M82.63,184.56h0l.57,5.25-3.11-3.11-1.19-1q-19.06,5.63-34.48,5.64c-2.52,0-5-.12-7.34-.34,14.53,13,36.33,28.17,67.7,40.45l1.8,1.09V175.41A241.46,241.46,0,0,1,82.63,184.56Z"/><path class="cls-1" d="M321.65,79.07v15.4c0,12.75-12.55,23.63-29.62,23.63-43.84,0-43.35-69.83,0-69.83,17.07,0,28.94,10.89,29.13,23.24H306.74c-1-5.19-7.65-9.41-13.92-9.41-24.33,0-23.74,42.17,0,42.17,6.08,0,13.24-4.5,14.12-9.6V92.51H292.82V79.07Zm51.58-30.21h17.65L364.4,99.17v18.35h-16V99.17L321.83,48.86h17.66l16.87,36.19Zm50.3,0,25.9,68.66H431.67l-6.67-20H406.76l-6.67,20H382.43l25.8-68.66Zm-7.65,20.2-5.4,16.28h10.8Zm75.61-20.2,25.89,68.66H499.63l-6.67-20H474.72l-6.68,20H450.39l25.8-68.66Zm-7.65,20.2-5.4,16.28h10.79Zm83.25-20.2h16.09v68.66H567.09L540.31,75.83v41.69H524.23V48.86h16.18l26.68,41.58Zm62,0c21.28.1,25.21,26.78,11,32.76,19.82,4.41,14.13,35.9-4.31,35.9H595.91V48.86ZM612,62.3V76.42h13.24c9.42,0,9.71-14.12,0-14.12ZM629,90H612v14h17C638.48,104,638.48,90,629,90Zm74.53-41.1h17.66L694.66,99.17v18.35h-16V99.17L652.09,48.86h17.66l16.87,36.19Zm84.73,0V62.3H764.28v55.22H748.2V62.3H724.36V48.86ZM813.31,104h36v13.54H797.22V48.86h50.71V62.3H813.31V76.42h24V90h-24Z"/><path class="cls-1" d="M267.27,140.79h5.13v36.56h-5.13Zm2.57,31.68h20.92v4.88H269.84Z"/><path class="cls-1" d="M303.45,175.73c-1.6-1.34-2.39-3.36-2.39-6.08s.73-4.51,2.19-5.8,3.66-1.94,6.61-1.94h7.42l.35,4.12h-7.75a4.34,4.34,0,0,0-3,.9,3.47,3.47,0,0,0-1,2.72,3.4,3.4,0,0,0,1.32,2.95,6.89,6.89,0,0,0,4,1,11.51,11.51,0,0,0,4.38-.63,2.06,2.06,0,0,0,1.45-2l.53,3.67a6,6,0,0,1-1.67,1.74,7.52,7.52,0,0,1-2.3,1,12.14,12.14,0,0,1-2.95.34Q305.83,177.73,303.45,175.73Zm13.6-14.93a5.51,5.51,0,0,0-1.37-4,5.14,5.14,0,0,0-3.89-1.42,10.27,10.27,0,0,0-3.05.47,9,9,0,0,0-2.65,1.34l-3.75-2.57a9.86,9.86,0,0,1,3.91-2.78,14.17,14.17,0,0,1,5.39-1A12.31,12.31,0,0,1,317.2,152a7.9,7.9,0,0,1,3.52,3.31,10.61,10.61,0,0,1,1.21,5.25v16.77h-4.88Z"/><path class="cls-1" d="M335.75,140.79h5.13v36.56h-5.13Zm7.44,35.77a6.87,6.87,0,0,1-2.67-3.31l.36-5.46a6.28,6.28,0,0,0,.6,2.87,4.19,4.19,0,0,0,1.75,1.81,5.68,5.68,0,0,0,2.78.63,5,5,0,0,0,3.93-1.55,6.28,6.28,0,0,0,1.4-4.36v-5.66a6.52,6.52,0,0,0-1.4-4.45A5,5,0,0,0,346,155.5a5.92,5.92,0,0,0-2.78.6,4,4,0,0,0-1.75,1.77,6.1,6.1,0,0,0-.6,2.81l-.53-5a9.07,9.07,0,0,1,3.09-3.53,7.64,7.64,0,0,1,4.25-1.25,8.72,8.72,0,0,1,4.74,1.25,7.82,7.82,0,0,1,3,3.63,14.61,14.61,0,0,1,1,5.76v5.68a13.91,13.91,0,0,1-1.06,5.68,7.79,7.79,0,0,1-3.09,3.61,9.2,9.2,0,0,1-4.88,1.25A7.65,7.65,0,0,1,343.19,176.56Z"/><path class="cls-1" d="M374.67,177.27a15.32,15.32,0,0,1-3.78-1.36,14.4,14.4,0,0,1-3.24-2.26l3-3.74a17.43,17.43,0,0,0,4.2,2.41,11.29,11.29,0,0,0,4.12.8,8.77,8.77,0,0,0,4.56-.94,3.11,3.11,0,0,0,1.53-2.83,2.21,2.21,0,0,0-.83-1.88,4.79,4.79,0,0,0-2.07-.85c-.82-.14-2-.27-3.47-.38l-.42,0-.43,0h-.4a20,20,0,0,1-4.3-.74,5.82,5.82,0,0,1-2.93-2,6.72,6.72,0,0,1-1.17-4.25,8.69,8.69,0,0,1,1.13-4.6,6.92,6.92,0,0,1,3.37-2.75,14.89,14.89,0,0,1,5.61-.92,19.49,19.49,0,0,1,3.88.38,16.89,16.89,0,0,1,3.53,1.12,17.39,17.39,0,0,1,3.25,1.87L386.76,158a17.37,17.37,0,0,0-3.86-1.89,11.8,11.8,0,0,0-3.71-.63,7,7,0,0,0-3.93.9A3,3,0,0,0,374,159a1.8,1.8,0,0,0,.74,1.59,4.38,4.38,0,0,0,1.87.7c.76.12,1.83.22,3.22.3a1.63,1.63,0,0,0,.31,0l.34,0h.15a.41.41,0,0,1,.16,0,22.36,22.36,0,0,1,4.66.73,6.3,6.3,0,0,1,3.23,2.19,7.41,7.41,0,0,1,1.31,4.72,8.36,8.36,0,0,1-1.21,4.67,7.26,7.26,0,0,1-3.63,2.78,17.43,17.43,0,0,1-6.1.93A20,20,0,0,1,374.67,177.27Z"/><path class="cls-1" d="M422.87,140.79H428v36.56h-5.13Zm2.64,17.5H437.2a5.42,5.42,0,0,0,2.92-.78,5.19,5.19,0,0,0,1.95-2.21,8.28,8.28,0,0,0,0-6.62,5.28,5.28,0,0,0-1.95-2.22,5.34,5.34,0,0,0-2.92-.79H425.51v-4.88H437a11.57,11.57,0,0,1,5.75,1.39,9.7,9.7,0,0,1,3.86,3.94,13.28,13.28,0,0,1,0,11.75,9.56,9.56,0,0,1-3.86,3.91,11.57,11.57,0,0,1-5.75,1.39H425.51Z"/><path class="cls-1" d="M459.19,151.25h5.13v26.1h-5.13Zm12.65,4.93a6.11,6.11,0,0,0-2.39-.43,5.13,5.13,0,0,0-3.78,1.34,5.06,5.06,0,0,0-1.35,3.74l-.53-5a9.62,9.62,0,0,1,3.12-3.63,7.31,7.31,0,0,1,4.23-1.3,9.43,9.43,0,0,1,3.23.52,7.18,7.18,0,0,1,2.52,1.52l-3.34,4.52A4.23,4.23,0,0,0,471.84,156.18Z"/><path class="cls-1" d="M487.19,140.79h5.13v5.13h-5.13Zm0,10.46h5.13v26.1h-5.13Z"/><path class="cls-1" d="M521.51,151.25h5.35l-9.81,26.1h-3.87l-9.8-26.1h5.35l6.39,18.63Z"/><path class="cls-1" d="M539.05,175.73c-1.6-1.34-2.39-3.36-2.39-6.08s.73-4.51,2.19-5.8,3.66-1.94,6.61-1.94h7.42l.35,4.12h-7.75a4.34,4.34,0,0,0-3,.9,3.47,3.47,0,0,0-1,2.72,3.4,3.4,0,0,0,1.32,2.95,6.89,6.89,0,0,0,4,1,11.51,11.51,0,0,0,4.38-.63,2.06,2.06,0,0,0,1.45-2l.53,3.67a6,6,0,0,1-1.67,1.74,7.52,7.52,0,0,1-2.3,1,12.14,12.14,0,0,1-3,.34C543.05,177.73,540.64,177.06,539.05,175.73Zm13.6-14.93a5.51,5.51,0,0,0-1.37-4,5.13,5.13,0,0,0-3.88-1.42,10.28,10.28,0,0,0-3.06.47,9,9,0,0,0-2.65,1.34l-3.75-2.57a9.86,9.86,0,0,1,3.91-2.78,14.17,14.17,0,0,1,5.39-1A12.31,12.31,0,0,1,552.8,152a7.9,7.9,0,0,1,3.52,3.31,10.61,10.61,0,0,1,1.21,5.25v16.77h-4.88Z"/><path class="cls-1" d="M569.34,151.25H581.1v4.62H569.34Zm4.16,24.48a7.87,7.87,0,0,1-1.47-5.17v-26.9h5.13v27a2.46,2.46,0,0,0,.37,1.47,1.3,1.3,0,0,0,1.11.52h2.46v4.87h-3A5.74,5.74,0,0,1,573.5,175.73Z"/><path class="cls-1" d="M598.67,176.37a9.14,9.14,0,0,1-3.91-4,13.76,13.76,0,0,1-1.35-6.35v-2.94a15.43,15.43,0,0,1,1.3-6.61,9.29,9.29,0,0,1,3.76-4.18,11.65,11.65,0,0,1,5.93-1.43,9.41,9.41,0,0,1,5.58,1.64,10.15,10.15,0,0,1,3.54,4.72,20.3,20.3,0,0,1,1.22,7.42v1.71h-17.6v-4.12h12.72a8.76,8.76,0,0,0-1.65-5,4.63,4.63,0,0,0-3.81-1.77,5.56,5.56,0,0,0-4.51,1.91,8.18,8.18,0,0,0-1.6,5.41v3.31a6.78,6.78,0,0,0,1.71,5,6.5,6.5,0,0,0,4.85,1.74,8.1,8.1,0,0,0,3.1-.63,9.11,9.11,0,0,0,2.74-1.76l3.37,3.37a14.22,14.22,0,0,1-4.35,2.88,12.4,12.4,0,0,1-4.86,1A13.12,13.12,0,0,1,598.67,176.37Z"/><path class="cls-1" d="M648.16,140.79h5.13v36.56h-5.13Zm2.56,31.68h20.92v4.88H650.72Z"/><path class="cls-1" d="M683.2,140.79h5.13v5.13H683.2Zm0,10.46h5.13v26.1H683.2Z"/><path class="cls-1" d="M702.15,151.25h5.13v26.1h-5.13Zm15.59,10.28a6.13,6.13,0,0,0-1.36-4.27,4.89,4.89,0,0,0-3.85-1.51,5.33,5.33,0,0,0-3.88,1.33,5,5,0,0,0-1.37,3.75l-.53-5a9.38,9.38,0,0,1,3.16-3.65,7.7,7.7,0,0,1,4.31-1.28,8.47,8.47,0,0,1,4.68,1.25,7.83,7.83,0,0,1,3,3.63,14.62,14.62,0,0,1,1,5.76v15.84h-5.13Zm15.59,0a6,6,0,0,0-1.43-4.27,5.29,5.29,0,0,0-4-1.51,4.7,4.7,0,0,0-3.69,1.46,5.91,5.91,0,0,0-1.31,4.12l-1-5a10.14,10.14,0,0,1,3.25-4,7.66,7.66,0,0,1,4.47-1.42,8.92,8.92,0,0,1,4.81,1.25,7.83,7.83,0,0,1,3,3.63,14.43,14.43,0,0,1,1,5.76v15.84h-5.13Z"/><path class="cls-1" d="M752.28,140.79h5.13v5.13h-5.13Zm0,10.46h5.13v26.1h-5.13Z"/><path class="cls-1" d="M769.22,151.25H781v4.62H769.22Zm4.16,24.48a7.87,7.87,0,0,1-1.47-5.17v-26.9H777v27a2.46,2.46,0,0,0,.37,1.47,1.3,1.3,0,0,0,1.11.52H781v4.87h-3A5.74,5.74,0,0,1,773.38,175.73Z"/><path class="cls-1" d="M798.55,176.37a9.14,9.14,0,0,1-3.91-4,13.76,13.76,0,0,1-1.35-6.35v-2.94a15.43,15.43,0,0,1,1.3-6.61,9.29,9.29,0,0,1,3.76-4.18,11.65,11.65,0,0,1,5.93-1.43,9.41,9.41,0,0,1,5.58,1.64,10.15,10.15,0,0,1,3.54,4.72,20.3,20.3,0,0,1,1.22,7.42v1.71H797v-4.12h12.72a8.76,8.76,0,0,0-1.65-5,4.63,4.63,0,0,0-3.81-1.77,5.56,5.56,0,0,0-4.51,1.91,8.18,8.18,0,0,0-1.6,5.41v3.31a6.78,6.78,0,0,0,1.71,5,6.5,6.5,0,0,0,4.85,1.74,8.14,8.14,0,0,0,3.1-.63,9.11,9.11,0,0,0,2.74-1.76l3.37,3.37a14.22,14.22,0,0,1-4.35,2.88,12.4,12.4,0,0,1-4.86,1A13.12,13.12,0,0,1,798.55,176.37Z"/><path class="cls-1" d="M831.06,176.56a7.87,7.87,0,0,1-3.08-3.64,14.16,14.16,0,0,1-1.05-5.73v-5.76a14.5,14.5,0,0,1,1-5.76,7.8,7.8,0,0,1,3-3.63,8.72,8.72,0,0,1,4.74-1.24,7.86,7.86,0,0,1,4.24,1.2,8.89,8.89,0,0,1,3.1,3.4l-.52,5.33a6,6,0,0,0-.61-2.84,4.09,4.09,0,0,0-1.74-1.8,5.82,5.82,0,0,0-2.78-.62,5,5,0,0,0-3.94,1.59,6.5,6.5,0,0,0-1.39,4.45v5.68a6.34,6.34,0,0,0,1.39,4.39,5,5,0,0,0,3.94,1.54,5.6,5.6,0,0,0,2.78-.64,4.16,4.16,0,0,0,1.74-1.85,6.26,6.26,0,0,0,.61-2.89l.35,5.51a7.42,7.42,0,0,1-2.55,3.24A7.17,7.17,0,0,1,836,177.8,9.16,9.16,0,0,1,831.06,176.56Zm11.46-35.77h5.13v36.56h-5.13Z"/></g></g></svg>